<?xml version="1.0" encoding="utf-8"?>
<svg xmlns="http://www.w3.org/2000/svg" style="margin: auto; background: rgb(231, 227, 147); display: block; shape-rendering: auto;" width="124" height="77" preserveAspectRatio="xMidYMid">
<style type="text/css">
  text {
    text-anchor: middle; font-size: 35px; opacity: 0;
  }
</style>
<g style="transform-origin: 62px 38.5px; transform: scale(0.411765);">
<g transform="translate(62,38.5)">
  <g transform="translate(0,0)"><g class="path" style="opacity: 1; transform-origin: -100.64px -1.81457px; animation: 2.32558s linear -1.41682s infinite normal forwards running fade-57a56839-6df6-4d18-bb70-91c00a7ba0fd;"><path d="M36.47-27.80L36.47-27.80L36.47-27.80Q37.15-27.80 37.78-26.48L37.78-26.48L37.78-26.48Q38.42-25.16 38.42-23.97L38.42-23.97L38.42-23.97Q38.42-22.95 38.12-21.93L38.12-21.93L38.12-21.93Q37.83-20.91 37.57-20.40L37.57-20.40L37.23-19.80L37.23-19.80Q33.07-11.73 24.86-4.93L24.86-4.93L24.86-4.93Q16.66 1.87 8.42 1.87L8.42 1.87L8.42 1.87Q4.08 1.87 2.04-1.23L2.04-1.23L2.04-1.23Q0-4.33 0-9.18L0-9.18L0-9.18Q0-17.68 4.89-26.56L4.89-26.56L4.89-26.56Q9.78-35.45 17.26-42.76L17.26-42.76L17.26-42.76Q14.03-43.10 11.22-45.22L11.22-45.22L11.22-45.22Q8.42-47.35 8.42-50.41L8.42-50.41L8.42-50.41Q8.42-55.08 16.07-59.67L16.07-59.67L16.07-59.67Q23.72-64.26 35.02-64.26L35.02-64.26L35.02-64.26Q38.59-64.26 44.07-63.37L44.07-63.37L44.07-63.37Q49.56-62.48 52.53-62.48L52.53-62.48L52.53-62.48Q57.29-62.48 59.33-64.01L59.33-64.01L59.33-64.01Q59.67-64.09 59.93-64.09L59.93-64.09L59.93-64.09Q60.35-64.09 60.35-63.75L60.35-63.75L60.35-63.75Q60.35-63.41 60.01-62.82L60.01-62.82L60.01-62.82Q58.31-60.10 55.42-58.40L55.42-58.40L55.42-58.40Q52.53-56.70 49.05-56.70L49.05-56.70L49.05-56.70Q45.30-56.70 38.04-58.65L38.04-58.65L38.04-58.65Q30.77-60.61 26.78-60.61L26.78-60.61L26.78-60.61Q22.27-60.61 18.19-58.06L18.19-58.06L18.19-58.06Q14.11-55.51 14.11-51.09L14.11-51.09L14.11-51.09Q14.11-49.22 15.13-47.43L15.13-47.43L15.13-47.43Q16.15-45.65 17.17-44.80L17.17-44.80L18.19-43.95L18.36-43.78L18.36-43.78Q28.31-53.21 36.21-55.00L36.21-55.00L36.21-55.00Q36.64-55.08 37.23-55.08L37.23-55.08L37.23-55.08Q38.08-55.08 38.08-54.57L38.08-54.57L38.08-54.57Q38.08-53.89 36.80-53.38L36.80-53.38L36.80-53.38Q34.43-52.45 30.01-48.54L30.01-48.54L30.01-48.54Q25.59-44.63 20.66-38.89L20.66-38.89L20.66-38.89Q15.73-33.15 12.11-25.20L12.11-25.20L12.11-25.20Q8.50-17.26 8.50-9.86L8.50-9.86L8.50-9.86Q8.50-2.30 13.69-2.30L13.69-2.30L13.69-2.30Q17.43-2.30 21.04-4.72L21.04-4.72L21.04-4.72Q24.65-7.14 27.41-11.05L27.41-11.05L27.41-11.05Q30.18-14.96 32.22-18.96L32.22-18.96L32.22-18.96Q34.26-22.95 35.62-27.03L35.62-27.03L35.62-27.03Q35.87-27.80 36.47-27.80" fill="#2e1f27" stroke="none" stroke-width="none" transform="translate(-130.81500244140625,29.380431518554687)" style="fill: rgb(46, 31, 39);"></path></g><g class="path" style="opacity: 1; transform-origin: -76.75px -9.03957px; animation: 2.32558s linear -1.29875s infinite normal forwards running fade-57a56839-6df6-4d18-bb70-91c00a7ba0fd;"><path d="M64.69-12.84L64.69-12.84L64.69-12.84Q68.25-16.41 74.12-23.12L74.12-23.12L74.12-23.12Q74.38-23.38 74.55-23.38L74.55-23.38L74.55-23.38Q74.72-23.38 74.72-23.04L74.72-23.04L74.72-23.04Q74.72-21.42 73.44-19.89L73.44-19.89L73.44-19.89Q67.15-12.92 62.31-8.25L62.31-8.25L62.31-8.25Q52.11 1.19 48.88 1.19L48.88 1.19L48.88 1.19Q47.60 1.19 47.60-0.43L47.60-0.43L47.60-0.43Q47.60-3.49 51.09-9.73L51.09-9.73L51.09-9.73Q54.57-15.98 58.01-21.38L58.01-21.38L58.01-21.38Q61.45-26.78 61.45-27.71L61.45-27.71L61.45-27.71Q61.45-28.22 60.95-28.22L60.95-28.22L60.95-28.22Q58.91-28.22 53.21-21.93L53.21-21.93L53.21-21.93Q47.52-15.64 43.61-10.63L43.61-10.63L43.61-10.63Q39.27-5.19 36.08-1.96L36.08-1.96L36.08-1.96Q32.90 1.28 31.88 1.70L31.88 1.70L30.77 2.21L30.77 2.21Q30.01 2.21 30.01 1.36L30.01 1.36L30.01 1.36Q30.01 0 31.54-3.49L31.54-3.49L31.54-3.49Q33.06-6.97 34.59-9.78L34.59-9.78L36.13-12.58L49.39-36.38L49.39-36.38Q65.03-64.01 74.03-75.65L74.03-75.65L74.03-75.65Q76.59-79.05 77.61-79.05L77.61-79.05L77.61-79.05Q78.12-79.05 78.12-78.37L78.12-78.37L78.12-78.37Q78.12-76.59 75.40-71.06L75.40-71.06L75.40-71.06Q62.05-47.01 56.87-37.74L56.87-37.74L56.87-37.74Q53.72-32.13 51.17-27.75L51.17-27.75L51.17-27.75Q48.62-23.38 47.56-21.59L47.56-21.59L47.56-21.59Q46.50-19.80 45.73-18.49L45.73-18.49L45.73-18.49Q44.97-17.17 44.54-16.23L44.54-16.23L44.54-16.23Q44.45-15.98 44.45-15.73L44.45-15.73L44.45-15.73Q44.45-15.30 44.63-15.30L44.63-15.30L44.63-15.30Q44.80-15.30 45.30-15.81L45.30-15.81L45.30-15.81Q64.34-36.98 70.30-36.98L70.30-36.98L70.30-36.98Q71.49-36.98 71.49-35.79L71.49-35.79L71.49-35.79Q71.49-35.45 71.15-34.30L71.15-34.30L71.15-34.30Q70.81-33.15 69.19-29.67L69.19-29.67L69.19-29.67Q67.58-26.18 64.94-21.93L64.94-21.93L64.94-21.93Q63.33-19.55 60.86-15.13L60.86-15.13L60.86-15.13Q58.40-10.71 58.40-9.35L58.40-9.35L58.40-9.35Q58.40-8.59 59.16-8.59L59.16-8.59L59.16-8.59Q59.42-8.59 59.88-8.80L59.88-8.80L59.88-8.80Q60.35-9.01 60.95-9.52L60.95-9.52L60.95-9.52Q61.54-10.03 62.01-10.46L62.01-10.46L62.01-10.46Q62.48-10.88 63.37-11.69L63.37-11.69L63.37-11.69Q64.26-12.50 64.69-12.84" fill="#2e1f27" stroke="none" stroke-width="none" transform="translate(-130.81500244140625,29.380431518554687)" style="fill: rgb(133, 77, 39);"></path></g><g class="path" style="opacity: 1; transform-origin: -53.93px 11.3554px; animation: 2.32558s linear -1.18068s infinite normal forwards running fade-57a56839-6df6-4d18-bb70-91c00a7ba0fd;"><path d="M77.78-8.25L77.78-8.25L77.78-8.25Q67.83 1.10 65.03 1.10L65.03 1.10L65.03 1.10Q63.58 1.10 63.58-0.85L63.58-0.85L63.58-0.85Q63.58-2.81 65.11-6.55L65.11-6.55L65.11-6.55Q66.64-10.29 68.17-13.09L68.17-13.09L69.70-15.81L69.70-15.81Q76.16-27.12 79.48-32.05L79.48-32.05L79.48-32.05Q80.92-34.17 83.17-35.66L83.17-35.66L83.17-35.66Q85.43-37.15 87.38-37.15L87.38-37.15L87.38-37.15Q88.06-37.15 88.06-36.55L88.06-36.55L88.06-36.55Q88.06-36.13 87.47-34.94L87.47-34.94L87.47-34.94Q86.45-33.07 82.45-26.01L82.45-26.01L82.45-26.01Q78.45-18.96 77.69-17.51L77.69-17.51L77.69-17.51Q74.20-11.39 74.20-9.35L74.20-9.35L74.20-9.35Q74.20-8.59 74.72-8.59L74.72-8.59L74.72-8.59Q75.56-8.59 80.16-12.84L80.16-12.84L80.16-12.84Q83.72-16.41 89.59-23.12L89.59-23.12L89.59-23.12Q89.84-23.38 90.02-23.38L90.02-23.38L90.02-23.38Q90.19-23.38 90.19-23.04L90.19-23.04L90.19-23.04Q90.19-21.42 88.91-19.89L88.91-19.89L88.91-19.89Q82.62-12.92 77.78-8.25" fill="#2e1f27" stroke="none" stroke-width="none" transform="translate(-130.81500244140625,29.380431518554687)" style="fill: rgb(221, 114, 48);"></path></g><g class="path" style="opacity: 1; transform-origin: -39.74px -17.4996px; animation: 2.32558s linear -1.06261s infinite normal forwards running fade-57a56839-6df6-4d18-bb70-91c00a7ba0fd;"><path d="M89.08-41.99L89.08-41.99L89.08-41.99Q86.95-41.99 86.95-44.54L86.95-44.54L86.95-44.54Q86.95-46.92 88.74-49.34L88.74-49.34L88.74-49.34Q90.53-51.77 92.65-51.77L92.65-51.77L92.65-51.77Q95.20-51.77 95.20-48.88L95.20-48.88L95.20-48.88Q95.20-46.50 93.25-44.24L93.25-44.24L93.25-44.24Q91.29-41.99 89.08-41.99" fill="#2e1f27" stroke="none" stroke-width="none" transform="translate(-130.81500244140625,29.380431518554687)" style="fill: rgb(244, 201, 93);"></path></g><g class="path" style="opacity: 1; transform-origin: -30.98px 11.4854px; animation: 2.32558s linear -0.944544s infinite normal forwards running fade-57a56839-6df6-4d18-bb70-91c00a7ba0fd;"><path d="M109.99-8.25L109.99-8.25L109.99-8.25Q100.05 1.10 96.90 1.10L96.90 1.10L96.90 1.10Q95.45 1.10 95.45-0.43L95.45-0.43L95.45-0.43Q95.45-1.36 95.88-2.76L95.88-2.76L95.88-2.76Q96.31-4.17 96.94-5.57L96.94-5.57L96.94-5.57Q97.58-6.97 98.17-8.16L98.17-8.16L98.17-8.16Q98.77-9.35 99.37-10.37L99.37-10.37L99.37-10.37Q99.96-11.39 99.96-11.48L99.96-11.48L99.96-11.48Q101.23-13.77 103.78-17.89L103.78-17.89L103.78-17.89Q106.34-22.02 107.87-24.69L107.87-24.69L107.87-24.69Q109.40-27.37 109.40-27.97L109.40-27.97L109.40-27.97Q109.40-28.39 108.97-28.39L108.97-28.39L107.78-27.97L107.78-27.97Q103.87-25.16 98.43-19.25L98.43-19.25L98.43-19.25Q92.99-13.35 89.50-8.84L89.50-8.84L86.02-4.42L86.02-4.42Q84.92-2.81 84.06-1.79L84.06-1.79L84.06-1.79Q83.22-0.77 81.64 0.21L81.64 0.21L81.64 0.21Q80.07 1.19 78.45 1.19L78.45 1.19L78.45 1.19Q77.27 1.19 77.27 0.51L77.27 0.51L77.27 0.51Q77.27-0.17 78.88-3.44L78.88-3.44L78.88-3.44Q80.50-6.72 82.11-9.69L82.11-9.69L83.72-12.58L92.06-27.20L92.06-27.20Q93.33-29.33 94.14-30.47L94.14-30.47L94.14-30.47Q94.95-31.62 96.39-33.36L96.39-33.36L96.39-33.36Q97.84-35.11 99.49-35.96L99.49-35.96L99.49-35.96Q101.15-36.80 103.02-36.98L103.02-36.98L103.02-36.98Q103.70-36.98 103.70-36.38L103.70-36.38L103.70-36.38Q103.70-35.87 103.45-35.53L103.45-35.53L103.45-35.53Q101.49-32.47 97.45-25.42L97.45-25.42L97.45-25.42Q93.42-18.36 92.31-16.23L92.31-16.23L92.31-16.23Q92.06-15.73 92.06-15.47L92.06-15.47L92.06-15.47Q92.06-15.30 92.22-15.30L92.22-15.30L92.22-15.30Q92.39-15.30 93.08-15.81L93.08-15.81L93.08-15.81Q94.69-17.68 97.28-20.49L97.28-20.49L97.28-20.49Q99.88-23.29 106.08-28.94L106.08-28.94L106.08-28.94Q112.28-34.60 116.28-36.55L116.28-36.55L116.28-36.55Q117.22-36.98 118.06-36.98L118.06-36.98L118.06-36.98Q119.25-36.98 119.25-35.62L119.25-35.62L119.25-35.62Q118.58-31.62 112.71-21.93L112.71-21.93L112.71-21.93Q106.25-11.31 106.25-9.35L106.25-9.35L106.25-9.35Q106.25-8.67 106.84-8.67L106.84-8.67L106.84-8.67Q107.27-8.67 107.82-8.97L107.82-8.97L107.82-8.97Q108.38-9.27 109.06-9.82L109.06-9.82L109.06-9.82Q109.73-10.37 110.20-10.79L110.20-10.79L110.20-10.79Q110.67-11.22 111.44-11.94L111.44-11.94L111.44-11.94Q112.20-12.67 112.37-12.84L112.37-12.84L112.37-12.84Q115.94-16.41 121.81-23.12L121.81-23.12L121.81-23.12Q122.06-23.38 122.23-23.38L122.23-23.38L122.23-23.38Q122.40-23.38 122.40-23.04L122.40-23.04L122.40-23.04Q122.40-21.42 121.13-19.89L121.13-19.89L121.13-19.89Q114.84-12.92 109.99-8.25" fill="#2e1f27" stroke="none" stroke-width="none" transform="translate(-130.81500244140625,29.380431518554687)" style="fill: rgb(221, 114, 48);"></path></g><g class="path" style="opacity: 1; transform-origin: 2.975px -9.29457px; animation: 2.32558s linear -0.826476s infinite normal forwards running fade-57a56839-6df6-4d18-bb70-91c00a7ba0fd;"><path d="M143.06-12.84L143.06-12.84L143.06-12.84Q146.63-16.41 152.49-23.12L152.49-23.12L152.49-23.12Q152.75-23.38 152.92-23.38L152.92-23.38L152.92-23.38Q153.09-23.38 153.09-23.04L153.09-23.04L153.09-23.04Q153.09-21.42 151.81-19.89L151.81-19.89L151.81-19.89Q145.52-12.92 140.68-8.25L140.68-8.25L140.68-8.25Q140.25-7.82 139.10-6.67L139.10-6.67L139.10-6.67Q137.96-5.53 137.28-4.89L137.28-4.89L137.28-4.89Q136.59-4.25 135.49-3.19L135.49-3.19L135.49-3.19Q134.38-2.13 133.62-1.53L133.62-1.53L133.62-1.53Q132.86-0.94 131.96-0.30L131.96-0.30L131.96-0.30Q131.07 0.34 130.35 0.64L130.35 0.64L130.35 0.64Q129.63 0.94 129.12 0.94L129.12 0.94L129.12 0.94Q127.59 0.94 127.59-1.87L127.59-1.87L127.59-1.87Q127.59-4.93 128.90-9.69L128.90-9.69L128.90-9.69Q130.22-14.45 131.58-17.68L131.58-17.68L132.86-20.91L132.86-20.91Q132.94-21.08 132.94-21.25L132.94-21.25L132.94-21.25Q132.94-21.42 132.77-21.42L132.77-21.42L132.26-21.25L132.26-21.25Q129.03-18.02 125.59-13.98L125.59-13.98L125.59-13.98Q122.15-9.95 120.36-7.57L120.36-7.57L118.58-5.19L118.58-5.19Q116.88-2.55 114.62-0.60L114.62-0.60L114.62-0.60Q112.37 1.36 111.18 1.36L111.18 1.36L111.18 1.36Q110.33 1.36 110.33 0.26L110.33 0.26L110.33 0.26Q110.33-1.36 111.86-4.85L111.86-4.85L111.86-4.85Q113.39-8.33 114.92-11.05L114.92-11.05L116.45-13.77L128.86-35.96L128.86-35.96Q145.61-65.70 153.25-75.40L153.25-75.40L153.25-75.40Q155.81-78.71 156.83-78.71L156.83-78.71L156.83-78.71Q157.25-78.71 157.25-78.03L157.25-78.03L157.25-78.03Q157.25-76.16 154.53-70.72L154.53-70.72L154.53-70.72Q141.19-46.58 136-37.32L136-37.32L136-37.32Q125.89-19.21 123.84-15.81L123.84-15.81L123.84-15.47L123.84-15.47Q123.84-15.22 124.02-15.22L124.02-15.22L124.02-15.22Q124.19-15.22 124.53-15.56L124.53-15.56L128.52-19.89L128.52-19.89Q132.60-24.23 135.92-27.54L135.92-27.54L135.92-27.54Q139.23-30.86 143.31-34.04L143.31-34.04L143.31-34.04Q147.39-37.23 149.34-37.23L149.34-37.23L149.34-37.23Q150.71-37.23 150.71-35.19L150.71-35.19L150.71-35.19Q150.71-34 149.86-31.54L149.86-31.54L149.86-31.54Q149.00-29.07 148.16-29.07L148.16-29.07L148.16-29.07Q147.81-29.07 147.56-29.92L147.56-29.92L147.56-29.92Q147.13-32.05 145.09-32.05L145.09-32.05L145.09-32.05Q142.21-32.05 139.74-26.56L139.74-26.56L139.74-26.56Q137.28-21.08 136.25-15.94L136.25-15.94L136.25-15.94Q135.24-10.79 135.24-9.01L135.24-9.01L135.24-9.01Q135.24-7.14 136.17-7.14L136.17-7.14L136.17-7.14Q136.94-7.14 138.17-8.12L138.17-8.12L138.17-8.12Q139.40-9.10 141.06-10.79L141.06-10.79L141.06-10.79Q142.72-12.50 143.06-12.84" fill="#2e1f27" stroke="none" stroke-width="none" transform="translate(-130.81500244140625,29.380431518554687)" style="fill: rgb(46, 31, 39);"></path></g><g class="path" style="opacity: 1; transform-origin: 24.44px 11.3554px; animation: 2.32558s linear -0.708408s infinite normal forwards running fade-57a56839-6df6-4d18-bb70-91c00a7ba0fd;"><path d="M156.15-8.25L156.15-8.25L156.15-8.25Q146.20 1.10 143.40 1.10L143.40 1.10L143.40 1.10Q141.95 1.10 141.95-0.85L141.95-0.85L141.95-0.85Q141.95-2.81 143.48-6.55L143.48-6.55L143.48-6.55Q145.01-10.29 146.54-13.09L146.54-13.09L148.07-15.81L148.07-15.81Q154.53-27.12 157.85-32.05L157.85-32.05L157.85-32.05Q159.29-34.17 161.54-35.66L161.54-35.66L161.54-35.66Q163.80-37.15 165.75-37.15L165.75-37.15L165.75-37.15Q166.43-37.15 166.43-36.55L166.43-36.55L166.43-36.55Q166.43-36.13 165.84-34.94L165.84-34.94L165.84-34.94Q164.82-33.07 160.82-26.01L160.82-26.01L160.82-26.01Q156.83-18.96 156.06-17.51L156.06-17.51L156.06-17.51Q152.58-11.39 152.58-9.35L152.58-9.35L152.58-9.35Q152.58-8.59 153.09-8.59L153.09-8.59L153.09-8.59Q153.94-8.59 158.53-12.84L158.53-12.84L158.53-12.84Q162.10-16.41 167.96-23.12L167.96-23.12L167.96-23.12Q168.22-23.38 168.39-23.38L168.39-23.38L168.39-23.38Q168.56-23.38 168.56-23.04L168.56-23.04L168.56-23.04Q168.56-21.42 167.28-19.89L167.28-19.89L167.28-19.89Q160.99-12.92 156.15-8.25" fill="#2e1f27" stroke="none" stroke-width="none" transform="translate(-130.81500244140625,29.380431518554687)" style="fill: rgb(133, 77, 39);"></path></g><g class="path" style="opacity: 1; transform-origin: 38.635px -17.4996px; animation: 2.32558s linear -0.59034s infinite normal forwards running fade-57a56839-6df6-4d18-bb70-91c00a7ba0fd;"><path d="M167.45-41.99L167.45-41.99L167.45-41.99Q165.33-41.99 165.33-44.54L165.33-44.54L165.33-44.54Q165.33-46.92 167.11-49.34L167.11-49.34L167.11-49.34Q168.90-51.77 171.02-51.77L171.02-51.77L171.02-51.77Q173.57-51.77 173.57-48.88L173.57-48.88L173.57-48.88Q173.57-46.50 171.62-44.24L171.62-44.24L171.62-44.24Q169.66-41.99 167.45-41.99" fill="#2e1f27" stroke="none" stroke-width="none" transform="translate(-130.81500244140625,29.380431518554687)" style="fill: rgb(221, 114, 48);"></path></g><g class="path" style="opacity: 1; transform-origin: 47.39px 11.4854px; animation: 2.32558s linear -0.472272s infinite normal forwards running fade-57a56839-6df6-4d18-bb70-91c00a7ba0fd;"><path d="M188.36-8.25L188.36-8.25L188.36-8.25Q178.42 1.10 175.27 1.10L175.27 1.10L175.27 1.10Q173.83 1.10 173.83-0.43L173.83-0.43L173.83-0.43Q173.83-1.36 174.25-2.76L174.25-2.76L174.25-2.76Q174.68-4.17 175.31-5.57L175.31-5.57L175.31-5.57Q175.95-6.97 176.55-8.16L176.55-8.16L176.55-8.16Q177.14-9.35 177.74-10.37L177.74-10.37L177.74-10.37Q178.33-11.39 178.33-11.48L178.33-11.48L178.33-11.48Q179.61-13.77 182.16-17.89L182.16-17.89L182.16-17.89Q184.71-22.02 186.24-24.69L186.24-24.69L186.24-24.69Q187.77-27.37 187.77-27.97L187.77-27.97L187.77-27.97Q187.77-28.39 187.34-28.39L187.34-28.39L186.15-27.97L186.15-27.97Q182.24-25.16 176.80-19.25L176.80-19.25L176.80-19.25Q171.36-13.35 167.88-8.84L167.88-8.84L164.39-4.42L164.39-4.42Q163.29-2.81 162.44-1.79L162.44-1.79L162.44-1.79Q161.59-0.77 160.01 0.21L160.01 0.21L160.01 0.21Q158.44 1.19 156.83 1.19L156.83 1.19L156.83 1.19Q155.64 1.19 155.64 0.51L155.64 0.51L155.64 0.51Q155.64-0.17 157.25-3.44L157.25-3.44L157.25-3.44Q158.87-6.72 160.48-9.69L160.48-9.69L162.10-12.58L170.43-27.20L170.43-27.20Q171.70-29.33 172.51-30.47L172.51-30.47L172.51-30.47Q173.32-31.62 174.76-33.36L174.76-33.36L174.76-33.36Q176.21-35.11 177.86-35.96L177.86-35.96L177.86-35.96Q179.52-36.80 181.39-36.98L181.39-36.98L181.39-36.98Q182.07-36.98 182.07-36.38L182.07-36.38L182.07-36.38Q182.07-35.87 181.82-35.53L181.82-35.53L181.82-35.53Q179.86-32.47 175.82-25.42L175.82-25.42L175.82-25.42Q171.79-18.36 170.68-16.23L170.68-16.23L170.68-16.23Q170.43-15.73 170.43-15.47L170.43-15.47L170.43-15.47Q170.43-15.30 170.60-15.30L170.60-15.30L170.60-15.30Q170.77-15.30 171.45-15.81L171.45-15.81L171.45-15.81Q173.06-17.68 175.65-20.49L175.65-20.49L175.65-20.49Q178.25-23.29 184.45-28.94L184.45-28.94L184.45-28.94Q190.66-34.60 194.65-36.55L194.65-36.55L194.65-36.55Q195.59-36.98 196.44-36.98L196.44-36.98L196.44-36.98Q197.63-36.98 197.63-35.62L197.63-35.62L197.63-35.62Q196.95-31.62 191.08-21.93L191.08-21.93L191.08-21.93Q184.62-11.31 184.62-9.35L184.62-9.35L184.62-9.35Q184.62-8.67 185.22-8.67L185.22-8.67L185.22-8.67Q185.64-8.67 186.19-8.97L186.19-8.97L186.19-8.97Q186.75-9.27 187.43-9.82L187.43-9.82L187.43-9.82Q188.11-10.37 188.57-10.79L188.57-10.79L188.57-10.79Q189.04-11.22 189.81-11.94L189.81-11.94L189.81-11.94Q190.57-12.67 190.74-12.84L190.74-12.84L190.74-12.84Q194.31-16.41 200.18-23.12L200.18-23.12L200.18-23.12Q200.43-23.38 200.60-23.38L200.60-23.38L200.60-23.38Q200.77-23.38 200.77-23.04L200.77-23.04L200.77-23.04Q200.77-21.42 199.50-19.89L199.50-19.89L199.50-19.89Q193.21-12.92 188.36-8.25" fill="#2e1f27" stroke="none" stroke-width="none" transform="translate(-130.81500244140625,29.380431518554687)" style="fill: rgb(244, 201, 93);"></path></g><g class="path" style="opacity: 1; transform-origin: 74.04px 32.9954px; animation: 2.32558s linear -0.354204s infinite normal forwards running fade-57a56839-6df6-4d18-bb70-91c00a7ba0fd;"><path d="M203.49 2.47L212.08-14.20L212.08-14.20Q212.42-14.88 212.42-15.13L212.42-15.13L211.57-14.54L211.57-14.54Q208.93-11.48 205.49-8.25L205.49-8.25L205.49-8.25Q202.05-5.02 199.92-3.23L199.92-3.23L197.80-1.53L197.80-1.53Q194.31 1.02 192.53 1.02L192.53 1.02L192.53 1.02Q190.83 1.02 190.83-1.45L190.83-1.45L190.83-1.45Q190.83-7.57 195.33-15.90L195.33-15.90L195.33-15.90Q199.84-24.23 207.02-30.52L207.02-30.52L207.02-30.52Q214.20-36.80 220.66-36.80L220.66-36.80L220.66-36.80Q221.94-36.80 222.83-36.51L222.83-36.51L222.83-36.51Q223.72-36.21 224.10-35.96L224.10-35.96L224.10-35.96Q224.49-35.70 224.57-35.70L224.57-35.70L224.57-35.70Q224.74-35.70 225.00-35.96L225.00-35.96L225.00-35.96Q225.51-36.64 226.31-37.66L226.31-37.66L226.31-37.66Q227.12-38.68 229.08-40.42L229.08-40.42L229.08-40.42Q231.03-42.16 232.22-42.16L232.22-42.16L232.22-42.16Q232.82-42.16 232.82-41.31L232.82-41.31L232.82-41.31Q232.82-40.12 231.63-37.74L231.63-37.74L231.63-37.74Q222.53-21.00 220.58-17.51L220.58-17.51L220.58-17.51Q219.90-16.23 217.47-12.03L217.47-12.03L217.47-12.03Q215.05-7.82 214.03-6.04L214.03-6.04L214.03-6.04Q219.39-10.37 222.87-13.52L222.87-13.52L222.87-13.52Q226.61-17.43 231.63-23.12L231.63-23.12L231.63-23.12Q231.88-23.38 232.05-23.38L232.05-23.38L232.05-23.38Q232.22-23.38 232.22-23.04L232.22-23.04L232.22-23.04Q232.22-21.42 230.95-19.89L230.95-19.89L230.95-19.89Q227.21-15.81 224.49-12.92L224.49-12.92L224.49-12.92Q220.92-9.18 211.74-2.04L211.74-2.04L209.53 2.04L209.53 2.04Q193.12 32.22 186.92 41.31L186.92 41.31L186.92 41.31Q186.32 42.25 185.39 43.56L185.39 43.56L185.39 43.56Q184.45 44.88 182.33 47.13L182.33 47.13L182.33 47.13Q180.20 49.39 178.93 49.39L178.93 49.39L178.93 49.39Q176.89 49.39 176.89 43.52L176.89 43.52L176.89 43.52Q176.89 34.85 183.09 24.65L183.09 24.65L183.09 24.65Q189.64 13.86 203.49 2.47L203.49 2.47zM223.38-34L223.38-34L223.38-34Q223.47-34.09 223.47-34.34L223.47-34.34L223.47-34.34Q223.47-34.94 222.11-34.94L222.11-34.94L222.11-34.94Q218.71-34.94 213.35-29.67L213.35-29.67L213.35-29.67Q208.00-24.40 204.09-18.11L204.09-18.11L204.09-18.11Q200.18-11.82 200.18-8.84L200.18-8.84L200.18-8.84Q200.18-7.65 201.20-7.65L201.20-7.65L201.20-7.65Q202.13-7.65 203.58-8.84L203.58-8.84L203.58-8.84Q204.85-9.95 207.02-11.94L207.02-11.94L207.02-11.94Q209.19-13.94 214.46-20.49L214.46-20.49L214.46-20.49Q219.73-27.03 223.38-34zM185.22 24.48L185.22 24.48L185.22 24.48Q184.54 25.50 183.60 27.16L183.60 27.16L183.60 27.16Q182.67 28.82 181.05 32.85L181.05 32.85L181.05 32.85Q179.44 36.89 179.44 39.61L179.44 39.61L179.44 39.61Q179.44 41.05 179.95 41.05L179.95 41.05L179.95 41.05Q180.37 41.05 181.22 40.25L181.22 40.25L181.22 40.25Q182.07 39.44 182.67 38.59L182.67 38.59L183.26 37.74L183.26 37.74Q190.40 26.69 201.28 6.55L201.28 6.55L201.28 6.55Q190.57 15.81 185.22 24.48" fill="#2e1f27" stroke="none" stroke-width="none" transform="translate(-130.81500244140625,29.380431518554687)" style="fill: rgb(221, 114, 48);"></path></g><g class="path" style="opacity: 1; transform-origin: 97.07px 25.1304px; animation: 2.32558s linear -0.236136s infinite normal forwards running fade-57a56839-6df6-4d18-bb70-91c00a7ba0fd;"><path d="M226.10 0.68L226.10 0.68L226.10 0.68Q224.91 0.68 224.23-0.09L224.23-0.09L224.23-0.09Q223.55-0.85 223.55-2.13L223.55-2.13L223.55-2.13Q223.55-4.50 225.46-6.84L225.46-6.84L225.46-6.84Q227.38-9.18 229.67-9.18L229.67-9.18L229.67-9.18Q232.22-9.18 232.22-6.29L232.22-6.29L232.22-6.29Q232.22-3.83 230.31-1.62L230.31-1.62L230.31-1.62Q228.40 0.60 226.10 0.68" fill="#2e1f27" stroke="none" stroke-width="none" transform="translate(-130.81500244140625,29.380431518554687)" style="fill: rgb(46, 31, 39);"></path></g><g class="path" style="opacity: 1; transform-origin: 111.78px 25.1304px; animation: 2.32558s linear -0.118068s infinite normal forwards running fade-57a56839-6df6-4d18-bb70-91c00a7ba0fd;"><path d="M240.81 0.68L240.81 0.68L240.81 0.68Q239.62 0.68 238.94-0.09L238.94-0.09L238.94-0.09Q238.26-0.85 238.26-2.13L238.26-2.13L238.26-2.13Q238.26-4.50 240.17-6.84L240.17-6.84L240.17-6.84Q242.08-9.18 244.38-9.18L244.38-9.18L244.38-9.18Q246.93-9.18 246.93-6.29L246.93-6.29L246.93-6.29Q246.93-3.83 245.01-1.62L245.01-1.62L245.01-1.62Q243.10 0.60 240.81 0.68" fill="#2e1f27" stroke="none" stroke-width="none" transform="translate(-130.81500244140625,29.380431518554687)" style="fill: rgb(133, 77, 39);"></path></g><g class="path" style="opacity: 1; transform-origin: 126.48px 25.1304px; animation: 2.32558s linear 0s infinite normal forwards running fade-57a56839-6df6-4d18-bb70-91c00a7ba0fd;"><path d="M255.51 0.68L255.51 0.68L255.51 0.68Q254.32 0.68 253.64-0.09L253.64-0.09L253.64-0.09Q252.96-0.85 252.96-2.13L252.96-2.13L252.96-2.13Q252.96-4.50 254.87-6.84L254.87-6.84L254.87-6.84Q256.79-9.18 259.08-9.18L259.08-9.18L259.08-9.18Q261.63-9.18 261.63-6.29L261.63-6.29L261.63-6.29Q261.63-3.83 259.72-1.62L259.72-1.62L259.72-1.62Q257.81 0.60 255.51 0.68" fill="#2e1f27" stroke="none" stroke-width="none" transform="translate(-130.81500244140625,29.380431518554687)" style="fill: rgb(221, 114, 48);"></path></g></g>
</g>
</g>
<style id="fade-57a56839-6df6-4d18-bb70-91c00a7ba0fd" data-anikit="">@keyframes fade-57a56839-6df6-4d18-bb70-91c00a7ba0fd
{
  0% {
    animation-timing-function: cubic-bezier(0.6277,0.0816,0.7943,0.427);
    opacity: 1;
  }
  100% {
    opacity: 0;
  }
}</style></svg>