<?xml version="1.0" encoding="utf-8"?>
<svg xmlns="http://www.w3.org/2000/svg" style="margin: auto; background: rgb(231, 227, 147); display: block; shape-rendering: auto;" width="284" height="127" preserveAspectRatio="xMidYMid">
<style type="text/css">
  text {
    text-anchor: middle; font-size: 76px; opacity: 0;
  }
</style>
<g style="transform-origin:142px 63.5px;transform:scale(1)">
<g transform="translate(142,63.5)">
  <g transform="translate(0,-14)"><g class="path" style="opacity: 1; transform-origin: -89.985px -1.62473px; animation: 2.32558s linear -1.41682s infinite normal forwards running fade-7624f186-ce5c-40ee-bb67-622e08c11014;"><path d="M32.60-24.85L32.60-24.85L32.60-24.85Q33.21-24.85 33.78-23.67L33.78-23.67L33.78-23.67Q34.35-22.50 34.35-21.43L34.35-21.43L34.35-21.43Q34.35-20.52 34.09-19.61L34.09-19.61L34.09-19.61Q33.82-18.70 33.59-18.24L33.59-18.24L33.29-17.71L33.29-17.71Q29.56-10.49 22.23-4.41L22.23-4.41L22.23-4.41Q14.90 1.67 7.52 1.67L7.52 1.67L7.52 1.67Q3.65 1.67 1.82-1.10L1.82-1.10L1.82-1.10Q0-3.88 0-8.21L0-8.21L0-8.21Q0-15.81 4.37-23.75L4.37-23.75L4.37-23.75Q8.74-31.69 15.43-38.23L15.43-38.23L15.43-38.23Q12.54-38.53 10.03-40.43L10.03-40.43L10.03-40.43Q7.52-42.33 7.52-45.07L7.52-45.07L7.52-45.07Q7.52-49.25 14.36-53.35L14.36-53.35L14.36-53.35Q21.20-57.46 31.31-57.46L31.31-57.46L31.31-57.46Q34.50-57.46 39.41-56.66L39.41-56.66L39.41-56.66Q44.31-55.86 46.97-55.86L46.97-55.86L46.97-55.86Q51.22-55.86 53.05-57.23L53.05-57.23L53.05-57.23Q53.35-57.30 53.58-57.30L53.58-57.30L53.58-57.30Q53.96-57.30 53.96-57L53.96-57L53.96-57Q53.96-56.70 53.66-56.16L53.66-56.16L53.66-56.16Q52.14-53.73 49.55-52.21L49.55-52.21L49.55-52.21Q46.97-50.69 43.85-50.69L43.85-50.69L43.85-50.69Q40.51-50.69 34.01-52.44L34.01-52.44L34.01-52.44Q27.51-54.19 23.94-54.19L23.94-54.19L23.94-54.19Q19.91-54.19 16.26-51.91L16.26-51.91L16.26-51.91Q12.62-49.63 12.62-45.68L12.62-45.68L12.62-45.68Q12.62-44.00 13.53-42.41L13.53-42.41L13.53-42.41Q14.44-40.81 15.35-40.05L15.35-40.05L16.26-39.29L16.42-39.14L16.42-39.14Q25.31-47.58 32.38-49.17L32.38-49.17L32.38-49.17Q32.76-49.25 33.29-49.25L33.29-49.25L33.29-49.25Q34.05-49.25 34.05-48.79L34.05-48.79L34.05-48.79Q34.05-48.18 32.91-47.73L32.91-47.73L32.91-47.73Q30.78-46.89 26.83-43.40L26.83-43.40L26.83-43.40Q22.88-39.90 18.47-34.77L18.47-34.77L18.47-34.77Q14.06-29.64 10.83-22.53L10.83-22.53L10.83-22.53Q7.60-15.43 7.60-8.82L7.60-8.82L7.60-8.82Q7.60-2.05 12.24-2.05L12.24-2.05L12.24-2.05Q15.58-2.05 18.81-4.22L18.81-4.22L18.81-4.22Q22.04-6.38 24.51-9.88L24.51-9.88L24.51-9.88Q26.98-13.38 28.80-16.95L28.80-16.95L28.80-16.95Q30.63-20.52 31.84-24.17L31.84-24.17L31.84-24.17Q32.07-24.85 32.60-24.85" fill="#2e1f27" stroke="none" stroke-width="none" transform="translate(-116.96499633789062,26.270274282602166)" style="fill: rgb(46, 31, 39);"></path></g><g class="path" style="opacity: 1; transform-origin: -68.63px -8.07972px; animation: 2.32558s linear -1.29875s infinite normal forwards running fade-7624f186-ce5c-40ee-bb67-622e08c11014;"><path d="M57.84-11.48L57.84-11.48L57.84-11.48Q61.03-14.67 66.27-20.67L66.27-20.67L66.27-20.67Q66.50-20.90 66.65-20.90L66.65-20.90L66.65-20.90Q66.80-20.90 66.80-20.60L66.80-20.60L66.80-20.60Q66.80-19.15 65.66-17.78L65.66-17.78L65.66-17.78Q60.04-11.55 55.71-7.37L55.71-7.37L55.71-7.37Q46.59 1.06 43.70 1.06L43.70 1.06L43.70 1.06Q42.56 1.06 42.56-0.38L42.56-0.38L42.56-0.38Q42.56-3.12 45.68-8.70L45.68-8.70L45.68-8.70Q48.79-14.29 51.87-19.11L51.87-19.11L51.87-19.11Q54.95-23.94 54.95-24.78L54.95-24.78L54.95-24.78Q54.95-25.23 54.49-25.23L54.49-25.23L54.49-25.23Q52.67-25.23 47.58-19.61L47.58-19.61L47.58-19.61Q42.48-13.98 38.99-9.50L38.99-9.50L38.99-9.50Q35.11-4.64 32.26-1.75L32.26-1.75L32.26-1.75Q29.41 1.14 28.50 1.52L28.50 1.52L27.51 1.98L27.51 1.98Q26.83 1.98 26.83 1.22L26.83 1.22L26.83 1.22Q26.83 0 28.20-3.12L28.20-3.12L28.20-3.12Q29.56-6.23 30.93-8.74L30.93-8.74L32.30-11.25L44.16-32.53L44.16-32.53Q58.14-57.23 66.20-67.64L66.20-67.64L66.20-67.64Q68.48-70.68 69.39-70.68L69.39-70.68L69.39-70.68Q69.84-70.68 69.84-70.07L69.84-70.07L69.84-70.07Q69.84-68.48 67.41-63.54L67.41-63.54L67.41-63.54Q55.48-42.03 50.84-33.74L50.84-33.74L50.84-33.74Q48.03-28.73 45.75-24.81L45.75-24.81L45.75-24.81Q43.47-20.90 42.52-19.30L42.52-19.30L42.52-19.30Q41.57-17.71 40.89-16.53L40.89-16.53L40.89-16.53Q40.20-15.35 39.82-14.52L39.82-14.52L39.82-14.52Q39.75-14.29 39.75-14.06L39.75-14.06L39.75-14.06Q39.75-13.68 39.90-13.68L39.90-13.68L39.90-13.68Q40.05-13.68 40.51-14.14L40.51-14.14L40.51-14.14Q57.53-33.06 62.85-33.06L62.85-33.06L62.85-33.06Q63.92-33.06 63.92-32.00L63.92-32.00L63.92-32.00Q63.92-31.69 63.61-30.67L63.61-30.67L63.61-30.67Q63.31-29.64 61.86-26.52L61.86-26.52L61.86-26.52Q60.42-23.41 58.06-19.61L58.06-19.61L58.06-19.61Q56.62-17.48 54.42-13.53L54.42-13.53L54.42-13.53Q52.21-9.58 52.21-8.36L52.21-8.36L52.21-8.36Q52.21-7.68 52.90-7.68L52.90-7.68L52.90-7.68Q53.12-7.68 53.54-7.87L53.54-7.87L53.54-7.87Q53.96-8.06 54.49-8.51L54.49-8.51L54.49-8.51Q55.02-8.97 55.44-9.35L55.44-9.35L55.44-9.35Q55.86-9.73 56.66-10.45L56.66-10.45L56.66-10.45Q57.46-11.17 57.84-11.48" fill="#2e1f27" stroke="none" stroke-width="none" transform="translate(-116.96499633789062,26.270274282602166)" style="fill: rgb(133, 77, 39);"></path></g><g class="path" style="opacity: 1; transform-origin: -48.22px 10.1603px; animation: 2.32558s linear -1.18068s infinite normal forwards running fade-7624f186-ce5c-40ee-bb67-622e08c11014;"><path d="M69.54-7.37L69.54-7.37L69.54-7.37Q60.65 0.99 58.14 0.99L58.14 0.99L58.14 0.99Q56.85 0.99 56.85-0.76L56.85-0.76L56.85-0.76Q56.85-2.51 58.22-5.85L58.22-5.85L58.22-5.85Q59.58-9.20 60.95-11.70L60.95-11.70L62.32-14.14L62.32-14.14Q68.10-24.24 71.06-28.65L71.06-28.65L71.06-28.65Q72.35-30.55 74.37-31.88L74.37-31.88L74.37-31.88Q76.38-33.21 78.13-33.21L78.13-33.21L78.13-33.21Q78.74-33.21 78.74-32.68L78.74-32.68L78.74-32.68Q78.74-32.30 78.20-31.24L78.20-31.24L78.20-31.24Q77.29-29.56 73.72-23.26L73.72-23.26L73.72-23.26Q70.15-16.95 69.46-15.66L69.46-15.66L69.46-15.66Q66.35-10.18 66.35-8.36L66.35-8.36L66.35-8.36Q66.35-7.68 66.80-7.68L66.80-7.68L66.80-7.68Q67.56-7.68 71.67-11.48L71.67-11.48L71.67-11.48Q74.86-14.67 80.10-20.67L80.10-20.67L80.10-20.67Q80.33-20.90 80.48-20.90L80.48-20.90L80.48-20.90Q80.64-20.90 80.64-20.60L80.64-20.60L80.64-20.60Q80.64-19.15 79.50-17.78L79.50-17.78L79.50-17.78Q73.87-11.55 69.54-7.37" fill="#2e1f27" stroke="none" stroke-width="none" transform="translate(-116.96499633789062,26.270274282602166)" style="fill: rgb(221, 114, 48);"></path></g><g class="path" style="opacity: 1; transform-origin: -35.53px -15.6397px; animation: 2.32558s linear -1.06261s infinite normal forwards running fade-7624f186-ce5c-40ee-bb67-622e08c11014;"><path d="M79.65-37.54L79.65-37.54L79.65-37.54Q77.75-37.54 77.75-39.82L77.75-39.82L77.75-39.82Q77.75-41.95 79.34-44.12L79.34-44.12L79.34-44.12Q80.94-46.28 82.84-46.28L82.84-46.28L82.84-46.28Q85.12-46.28 85.12-43.70L85.12-43.70L85.12-43.70Q85.12-41.57 83.37-39.56L83.37-39.56L83.37-39.56Q81.62-37.54 79.65-37.54" fill="#2e1f27" stroke="none" stroke-width="none" transform="translate(-116.96499633789062,26.270274282602166)" style="fill: rgb(244, 201, 93);"></path></g><g class="path" style="opacity: 1; transform-origin: -27.705px 10.2703px; animation: 2.32558s linear -0.944544s infinite normal forwards running fade-7624f186-ce5c-40ee-bb67-622e08c11014;"><path d="M98.34-7.37L98.34-7.37L98.34-7.37Q89.45 0.99 86.64 0.99L86.64 0.99L86.64 0.99Q85.35 0.99 85.35-0.38L85.35-0.38L85.35-0.38Q85.35-1.22 85.73-2.47L85.73-2.47L85.73-2.47Q86.11-3.72 86.68-4.98L86.68-4.98L86.68-4.98Q87.25-6.23 87.78-7.30L87.78-7.30L87.78-7.30Q88.31-8.36 88.84-9.27L88.84-9.27L88.84-9.27Q89.38-10.18 89.38-10.26L89.38-10.26L89.38-10.26Q90.52-12.31 92.80-16.00L92.80-16.00L92.80-16.00Q95.08-19.68 96.44-22.08L96.44-22.08L96.44-22.08Q97.81-24.47 97.81-25.00L97.81-25.00L97.81-25.00Q97.81-25.38 97.43-25.38L97.43-25.38L96.37-25.00L96.37-25.00Q92.87-22.50 88.01-17.21L88.01-17.21L88.01-17.21Q83.14-11.93 80.03-7.90L80.03-7.90L76.91-3.95L76.91-3.95Q75.92-2.51 75.16-1.60L75.16-1.60L75.16-1.60Q74.40-0.68 73.00 0.19L73.00 0.19L73.00 0.19Q71.59 1.06 70.15 1.06L70.15 1.06L70.15 1.06Q69.08 1.06 69.08 0.46L69.08 0.46L69.08 0.46Q69.08-0.15 70.53-3.08L70.53-3.08L70.53-3.08Q71.97-6.00 73.42-8.66L73.42-8.66L74.86-11.25L82.31-24.32L82.31-24.32Q83.45-26.22 84.17-27.25L84.17-27.25L84.17-27.25Q84.89-28.27 86.18-29.83L86.18-29.83L86.18-29.83Q87.48-31.39 88.96-32.15L88.96-32.15L88.96-32.15Q90.44-32.91 92.11-33.06L92.11-33.06L92.11-33.06Q92.72-33.06 92.72-32.53L92.72-32.53L92.72-32.53Q92.72-32.07 92.49-31.77L92.49-31.77L92.49-31.77Q90.74-29.03 87.13-22.72L87.13-22.72L87.13-22.72Q83.52-16.42 82.54-14.52L82.54-14.52L82.54-14.52Q82.31-14.06 82.31-13.83L82.31-13.83L82.31-13.83Q82.31-13.68 82.46-13.68L82.46-13.68L82.46-13.68Q82.61-13.68 83.22-14.14L83.22-14.14L83.22-14.14Q84.66-15.81 86.98-18.32L86.98-18.32L86.98-18.32Q89.30-20.82 94.85-25.88L94.85-25.88L94.85-25.88Q100.40-30.93 103.97-32.68L103.97-32.68L103.97-32.68Q104.80-33.06 105.56-33.06L105.56-33.06L105.56-33.06Q106.63-33.06 106.63-31.84L106.63-31.84L106.63-31.84Q106.02-28.27 100.78-19.61L100.78-19.61L100.78-19.61Q95-10.11 95-8.36L95-8.36L95-8.36Q95-7.75 95.53-7.75L95.53-7.75L95.53-7.75Q95.91-7.75 96.41-8.02L96.41-8.02L96.41-8.02Q96.90-8.28 97.51-8.78L97.51-8.78L97.51-8.78Q98.12-9.27 98.53-9.65L98.53-9.65L98.53-9.65Q98.95-10.03 99.64-10.68L99.64-10.68L99.64-10.68Q100.32-11.32 100.47-11.48L100.47-11.48L100.47-11.48Q103.66-14.67 108.91-20.67L108.91-20.67L108.91-20.67Q109.14-20.90 109.29-20.90L109.29-20.90L109.29-20.90Q109.44-20.90 109.44-20.60L109.44-20.60L109.44-20.60Q109.44-19.15 108.30-17.78L108.30-17.78L108.30-17.78Q102.68-11.55 98.34-7.37" fill="#2e1f27" stroke="none" stroke-width="none" transform="translate(-116.96499633789062,26.270274282602166)" style="fill: rgb(221, 114, 48);"></path></g><g class="path" style="opacity: 1; transform-origin: 2.66001px -8.30972px; animation: 2.32558s linear -0.826476s infinite normal forwards running fade-7624f186-ce5c-40ee-bb67-622e08c11014;"><path d="M127.91-11.48L127.91-11.48L127.91-11.48Q131.10-14.67 136.34-20.67L136.34-20.67L136.34-20.67Q136.57-20.90 136.72-20.90L136.72-20.90L136.72-20.90Q136.88-20.90 136.88-20.60L136.88-20.60L136.88-20.60Q136.88-19.15 135.74-17.78L135.74-17.78L135.74-17.78Q130.11-11.55 125.78-7.37L125.78-7.37L125.78-7.37Q125.40-6.99 124.37-5.97L124.37-5.97L124.37-5.97Q123.35-4.94 122.74-4.37L122.74-4.37L122.74-4.37Q122.13-3.80 121.14-2.85L121.14-2.85L121.14-2.85Q120.16-1.90 119.47-1.37L119.47-1.37L119.47-1.37Q118.79-0.84 117.99-0.27L117.99-0.27L117.99-0.27Q117.19 0.30 116.55 0.57L116.55 0.57L116.55 0.57Q115.90 0.84 115.44 0.84L115.44 0.84L115.44 0.84Q114.08 0.84 114.08-1.67L114.08-1.67L114.08-1.67Q114.08-4.41 115.25-8.66L115.25-8.66L115.25-8.66Q116.43-12.92 117.65-15.81L117.65-15.81L118.79-18.70L118.79-18.70Q118.86-18.85 118.86-19L118.86-19L118.86-19Q118.86-19.15 118.71-19.15L118.71-19.15L118.26-19L118.26-19Q115.37-16.11 112.29-12.50L112.29-12.50L112.29-12.50Q109.21-8.89 107.62-6.76L107.62-6.76L106.02-4.64L106.02-4.64Q104.50-2.28 102.49-0.53L102.49-0.53L102.49-0.53Q100.47 1.22 99.41 1.22L99.41 1.22L99.41 1.22Q98.65 1.22 98.65 0.23L98.65 0.23L98.65 0.23Q98.65-1.22 100.02-4.33L100.02-4.33L100.02-4.33Q101.38-7.45 102.75-9.88L102.75-9.88L104.12-12.31L115.22-32.15L115.22-32.15Q130.19-58.75 137.03-67.41L137.03-67.41L137.03-67.41Q139.31-70.38 140.22-70.38L140.22-70.38L140.22-70.38Q140.60-70.38 140.60-69.77L140.60-69.77L140.60-69.77Q140.60-68.10 138.17-63.23L138.17-63.23L138.17-63.23Q126.24-41.65 121.60-33.36L121.60-33.36L121.60-33.36Q112.56-17.18 110.73-14.14L110.73-14.14L110.73-13.83L110.73-13.83Q110.73-13.60 110.88-13.60L110.88-13.60L110.88-13.60Q111.04-13.60 111.34-13.91L111.34-13.91L114.91-17.78L114.91-17.78Q118.56-21.66 121.52-24.62L121.52-24.62L121.52-24.62Q124.49-27.59 128.14-30.44L128.14-30.44L128.14-30.44Q131.78-33.29 133.53-33.29L133.53-33.29L133.53-33.29Q134.75-33.29 134.75-31.46L134.75-31.46L134.75-31.46Q134.75-30.40 133.99-28.20L133.99-28.20L133.99-28.20Q133.23-25.99 132.47-25.99L132.47-25.99L132.47-25.99Q132.16-25.99 131.94-26.75L131.94-26.75L131.94-26.75Q131.56-28.65 129.73-28.65L129.73-28.65L129.73-28.65Q127.15-28.65 124.94-23.75L124.94-23.75L124.94-23.75Q122.74-18.85 121.83-14.25L121.83-14.25L121.83-14.25Q120.92-9.65 120.92-8.06L120.92-8.06L120.92-8.06Q120.92-6.38 121.75-6.38L121.75-6.38L121.75-6.38Q122.44-6.38 123.54-7.26L123.54-7.26L123.54-7.26Q124.64-8.13 126.12-9.65L126.12-9.65L126.12-9.65Q127.60-11.17 127.91-11.48" fill="#2e1f27" stroke="none" stroke-width="none" transform="translate(-116.96499633789062,26.270274282602166)" style="fill: rgb(46, 31, 39);"></path></g><g class="path" style="opacity: 1; transform-origin: 21.85px 10.1603px; animation: 2.32558s linear -0.708408s infinite normal forwards running fade-7624f186-ce5c-40ee-bb67-622e08c11014;"><path d="M139.61-7.37L139.61-7.37L139.61-7.37Q130.72 0.99 128.21 0.99L128.21 0.99L128.21 0.99Q126.92 0.99 126.92-0.76L126.92-0.76L126.92-0.76Q126.92-2.51 128.29-5.85L128.29-5.85L128.29-5.85Q129.66-9.20 131.02-11.70L131.02-11.70L132.39-14.14L132.39-14.14Q138.17-24.24 141.13-28.65L141.13-28.65L141.13-28.65Q142.42-30.55 144.44-31.88L144.44-31.88L144.44-31.88Q146.45-33.21 148.20-33.21L148.20-33.21L148.20-33.21Q148.81-33.21 148.81-32.68L148.81-32.68L148.81-32.68Q148.81-32.30 148.28-31.24L148.28-31.24L148.28-31.24Q147.36-29.56 143.79-23.26L143.79-23.26L143.79-23.26Q140.22-16.95 139.54-15.66L139.54-15.66L139.54-15.66Q136.42-10.18 136.42-8.36L136.42-8.36L136.42-8.36Q136.42-7.68 136.88-7.68L136.88-7.68L136.88-7.68Q137.64-7.68 141.74-11.48L141.74-11.48L141.74-11.48Q144.93-14.67 150.18-20.67L150.18-20.67L150.18-20.67Q150.40-20.90 150.56-20.90L150.56-20.90L150.56-20.90Q150.71-20.90 150.71-20.60L150.71-20.60L150.71-20.60Q150.71-19.15 149.57-17.78L149.57-17.78L149.57-17.78Q143.94-11.55 139.61-7.37" fill="#2e1f27" stroke="none" stroke-width="none" transform="translate(-116.96499633789062,26.270274282602166)" style="fill: rgb(133, 77, 39);"></path></g><g class="path" style="opacity: 1; transform-origin: 34.54px -15.6397px; animation: 2.32558s linear -0.59034s infinite normal forwards running fade-7624f186-ce5c-40ee-bb67-622e08c11014;"><path d="M149.72-37.54L149.72-37.54L149.72-37.54Q147.82-37.54 147.82-39.82L147.82-39.82L147.82-39.82Q147.82-41.95 149.42-44.12L149.42-44.12L149.42-44.12Q151.01-46.28 152.91-46.28L152.91-46.28L152.91-46.28Q155.19-46.28 155.19-43.70L155.19-43.70L155.19-43.70Q155.19-41.57 153.44-39.56L153.44-39.56L153.44-39.56Q151.70-37.54 149.72-37.54" fill="#2e1f27" stroke="none" stroke-width="none" transform="translate(-116.96499633789062,26.270274282602166)" style="fill: rgb(221, 114, 48);"></path></g><g class="path" style="opacity: 1; transform-origin: 42.37px 10.2703px; animation: 2.32558s linear -0.472272s infinite normal forwards running fade-7624f186-ce5c-40ee-bb67-622e08c11014;"><path d="M168.42-7.37L168.42-7.37L168.42-7.37Q159.52 0.99 156.71 0.99L156.71 0.99L156.71 0.99Q155.42 0.99 155.42-0.38L155.42-0.38L155.42-0.38Q155.42-1.22 155.80-2.47L155.80-2.47L155.80-2.47Q156.18-3.72 156.75-4.98L156.75-4.98L156.75-4.98Q157.32-6.23 157.85-7.30L157.85-7.30L157.85-7.30Q158.38-8.36 158.92-9.27L158.92-9.27L158.92-9.27Q159.45-10.18 159.45-10.26L159.45-10.26L159.45-10.26Q160.59-12.31 162.87-16.00L162.87-16.00L162.87-16.00Q165.15-19.68 166.52-22.08L166.52-22.08L166.52-22.08Q167.88-24.47 167.88-25.00L167.88-25.00L167.88-25.00Q167.88-25.38 167.50-25.38L167.50-25.38L166.44-25.00L166.44-25.00Q162.94-22.50 158.08-17.21L158.08-17.21L158.08-17.21Q153.22-11.93 150.10-7.90L150.10-7.90L146.98-3.95L146.98-3.95Q146.00-2.51 145.24-1.60L145.24-1.60L145.24-1.60Q144.48-0.68 143.07 0.19L143.07 0.19L143.07 0.19Q141.66 1.06 140.22 1.06L140.22 1.06L140.22 1.06Q139.16 1.06 139.16 0.46L139.16 0.46L139.16 0.46Q139.16-0.15 140.60-3.08L140.60-3.08L140.60-3.08Q142.04-6.00 143.49-8.66L143.49-8.66L144.93-11.25L152.38-24.32L152.38-24.32Q153.52-26.22 154.24-27.25L154.24-27.25L154.24-27.25Q154.96-28.27 156.26-29.83L156.26-29.83L156.26-29.83Q157.55-31.39 159.03-32.15L159.03-32.15L159.03-32.15Q160.51-32.91 162.18-33.06L162.18-33.06L162.18-33.06Q162.79-33.06 162.79-32.53L162.79-32.53L162.79-32.53Q162.79-32.07 162.56-31.77L162.56-31.77L162.56-31.77Q160.82-29.03 157.21-22.72L157.21-22.72L157.21-22.72Q153.60-16.42 152.61-14.52L152.61-14.52L152.61-14.52Q152.38-14.06 152.38-13.83L152.38-13.83L152.38-13.83Q152.38-13.68 152.53-13.68L152.53-13.68L152.53-13.68Q152.68-13.68 153.29-14.14L153.29-14.14L153.29-14.14Q154.74-15.81 157.05-18.32L157.05-18.32L157.05-18.32Q159.37-20.82 164.92-25.88L164.92-25.88L164.92-25.88Q170.47-30.93 174.04-32.68L174.04-32.68L174.04-32.68Q174.88-33.06 175.64-33.06L175.64-33.06L175.64-33.06Q176.70-33.06 176.70-31.84L176.70-31.84L176.70-31.84Q176.09-28.27 170.85-19.61L170.85-19.61L170.85-19.61Q165.07-10.11 165.07-8.36L165.07-8.36L165.07-8.36Q165.07-7.75 165.60-7.75L165.60-7.75L165.60-7.75Q165.98-7.75 166.48-8.02L166.48-8.02L166.48-8.02Q166.97-8.28 167.58-8.78L167.58-8.78L167.58-8.78Q168.19-9.27 168.61-9.65L168.61-9.65L168.61-9.65Q169.02-10.03 169.71-10.68L169.71-10.68L169.71-10.68Q170.39-11.32 170.54-11.48L170.54-11.48L170.54-11.48Q173.74-14.67 178.98-20.67L178.98-20.67L178.98-20.67Q179.21-20.90 179.36-20.90L179.36-20.90L179.36-20.90Q179.51-20.90 179.51-20.60L179.51-20.60L179.51-20.60Q179.51-19.15 178.37-17.78L178.37-17.78L178.37-17.78Q172.75-11.55 168.42-7.37" fill="#2e1f27" stroke="none" stroke-width="none" transform="translate(-116.96499633789062,26.270274282602166)" style="fill: rgb(244, 201, 93);"></path></g><g class="path" style="opacity: 1; transform-origin: 66.195px 29.5003px; animation: 2.32558s linear -0.354204s infinite normal forwards running fade-7624f186-ce5c-40ee-bb67-622e08c11014;"><path d="M181.94 2.20L189.62-12.69L189.62-12.69Q189.92-13.30 189.92-13.53L189.92-13.53L189.16-13.00L189.16-13.00Q186.81-10.26 183.73-7.37L183.73-7.37L183.73-7.37Q180.65-4.48 178.75-2.89L178.75-2.89L176.85-1.37L176.85-1.37Q173.74 0.91 172.14 0.91L172.14 0.91L172.14 0.91Q170.62 0.91 170.62-1.29L170.62-1.29L170.62-1.29Q170.62-6.76 174.65-14.21L174.65-14.21L174.65-14.21Q178.68-21.66 185.10-27.28L185.10-27.28L185.10-27.28Q191.52-32.91 197.30-32.91L197.30-32.91L197.30-32.91Q198.44-32.91 199.23-32.64L199.23-32.64L199.23-32.64Q200.03-32.38 200.37-32.15L200.37-32.15L200.37-32.15Q200.72-31.92 200.79-31.92L200.79-31.92L200.79-31.92Q200.94-31.92 201.17-32.15L201.17-32.15L201.17-32.15Q201.63-32.76 202.35-33.67L202.35-33.67L202.35-33.67Q203.07-34.58 204.82-36.14L204.82-36.14L204.82-36.14Q206.57-37.70 207.63-37.70L207.63-37.70L207.63-37.70Q208.16-37.70 208.16-36.94L208.16-36.94L208.16-36.94Q208.16-35.87 207.10-33.74L207.10-33.74L207.10-33.74Q198.97-18.77 197.22-15.66L197.22-15.66L197.22-15.66Q196.61-14.52 194.45-10.75L194.45-10.75L194.45-10.75Q192.28-6.99 191.37-5.40L191.37-5.40L191.37-5.40Q196.16-9.27 199.27-12.08L199.27-12.08L199.27-12.08Q202.62-15.58 207.10-20.67L207.10-20.67L207.10-20.67Q207.33-20.90 207.48-20.90L207.48-20.90L207.48-20.90Q207.63-20.90 207.63-20.60L207.63-20.60L207.63-20.60Q207.63-19.15 206.49-17.78L206.49-17.78L206.49-17.78Q203.15-14.14 200.72-11.55L200.72-11.55L200.72-11.55Q197.52-8.21 189.32-1.82L189.32-1.82L187.34 1.82L187.34 1.82Q172.67 28.80 167.12 36.94L167.12 36.94L167.12 36.94Q166.59 37.77 165.76 38.95L165.76 38.95L165.76 38.95Q164.92 40.13 163.02 42.14L163.02 42.14L163.02 42.14Q161.12 44.16 159.98 44.16L159.98 44.16L159.98 44.16Q158.16 44.16 158.16 38.91L158.16 38.91L158.16 38.91Q158.16 31.16 163.70 22.04L163.70 22.04L163.70 22.04Q169.56 12.39 181.94 2.20L181.94 2.20zM199.73-30.40L199.73-30.40L199.73-30.40Q199.80-30.48 199.80-30.70L199.80-30.70L199.80-30.70Q199.80-31.24 198.59-31.24L198.59-31.24L198.59-31.24Q195.55-31.24 190.76-26.52L190.76-26.52L190.76-26.52Q185.97-21.81 182.48-16.19L182.48-16.19L182.48-16.19Q178.98-10.56 178.98-7.90L178.98-7.90L178.98-7.90Q178.98-6.84 179.89-6.84L179.89-6.84L179.89-6.84Q180.73-6.84 182.02-7.90L182.02-7.90L182.02-7.90Q183.16-8.89 185.10-10.68L185.10-10.68L185.10-10.68Q187.04-12.46 191.75-18.32L191.75-18.32L191.75-18.32Q196.46-24.17 199.73-30.40zM165.60 21.89L165.60 21.89L165.60 21.89Q165.00 22.80 164.16 24.28L164.16 24.28L164.16 24.28Q163.32 25.76 161.88 29.37L161.88 29.37L161.88 29.37Q160.44 32.98 160.44 35.42L160.44 35.42L160.44 35.42Q160.44 36.71 160.89 36.71L160.89 36.71L160.89 36.71Q161.27 36.71 162.03 35.99L162.03 35.99L162.03 35.99Q162.79 35.26 163.32 34.50L163.32 34.50L163.86 33.74L163.86 33.74Q170.24 23.86 179.97 5.85L179.97 5.85L179.97 5.85Q170.39 14.14 165.60 21.89" fill="#2e1f27" stroke="none" stroke-width="none" transform="translate(-116.96499633789062,26.270274282602166)" style="fill: rgb(221, 114, 48);"></path></g><g class="path" style="opacity: 1; transform-origin: 86.79px 22.4703px; animation: 2.32558s linear -0.236136s infinite normal forwards running fade-7624f186-ce5c-40ee-bb67-622e08c11014;"><path d="M202.16 0.61L202.16 0.61L202.16 0.61Q201.10 0.61 200.49-0.08L200.49-0.08L200.49-0.08Q199.88-0.76 199.88-1.90L199.88-1.90L199.88-1.90Q199.88-4.03 201.59-6.12L201.59-6.12L201.59-6.12Q203.30-8.21 205.35-8.21L205.35-8.21L205.35-8.21Q207.63-8.21 207.63-5.62L207.63-5.62L207.63-5.62Q207.63-3.42 205.92-1.44L205.92-1.44L205.92-1.44Q204.21 0.53 202.16 0.61" fill="#2e1f27" stroke="none" stroke-width="none" transform="translate(-116.96499633789062,26.270274282602166)" style="fill: rgb(46, 31, 39);"></path></g><g class="path" style="opacity: 1; transform-origin: 99.94px 22.4703px; animation: 2.32558s linear -0.118068s infinite normal forwards running fade-7624f186-ce5c-40ee-bb67-622e08c11014;"><path d="M215.31 0.61L215.31 0.61L215.31 0.61Q214.24 0.61 213.64-0.08L213.64-0.08L213.64-0.08Q213.03-0.76 213.03-1.90L213.03-1.90L213.03-1.90Q213.03-4.03 214.74-6.12L214.74-6.12L214.74-6.12Q216.45-8.21 218.50-8.21L218.50-8.21L218.50-8.21Q220.78-8.21 220.78-5.62L220.78-5.62L220.78-5.62Q220.78-3.42 219.07-1.44L219.07-1.44L219.07-1.44Q217.36 0.53 215.31 0.61" fill="#2e1f27" stroke="none" stroke-width="none" transform="translate(-116.96499633789062,26.270274282602166)" style="fill: rgb(133, 77, 39);"></path></g><g class="path" style="opacity: 1; transform-origin: 113.09px 22.4703px; animation: 2.32558s linear 0s infinite normal forwards running fade-7624f186-ce5c-40ee-bb67-622e08c11014;"><path d="M228.46 0.61L228.46 0.61L228.46 0.61Q227.39 0.61 226.78-0.08L226.78-0.08L226.78-0.08Q226.18-0.76 226.18-1.90L226.18-1.90L226.18-1.90Q226.18-4.03 227.89-6.12L227.89-6.12L227.89-6.12Q229.60-8.21 231.65-8.21L231.65-8.21L231.65-8.21Q233.93-8.21 233.93-5.62L233.93-5.62L233.93-5.62Q233.93-3.42 232.22-1.44L232.22-1.44L232.22-1.44Q230.51 0.53 228.46 0.61" fill="#2e1f27" stroke="none" stroke-width="none" transform="translate(-116.96499633789062,26.270274282602166)" style="fill: rgb(221, 114, 48);"></path></g></g>
</g>
</g>
<style id="fade-7624f186-ce5c-40ee-bb67-622e08c11014" data-anikit="">@keyframes fade-7624f186-ce5c-40ee-bb67-622e08c11014
{
  0% {
    animation-timing-function: cubic-bezier(0.6277,0.0816,0.7943,0.427);
    opacity: 1;
  }
  100% {
    opacity: 0;
  }
}</style></svg>